Coordinates
version=1
nRows=19
nColumns=24
inDegrees=yes

Units are S.I. units (second, meters, Newtons, ...)
Angles are in degrees.

endheader
time	pelvis_tilt	pelvis_list	pelvis_rotation	pelvis_tx	pelvis_ty	pelvis_tz	hip_flexion_r	hip_adduction_r	hip_rotation_r	knee_angle_r	ankle_angle_r	subtalar_angle_r	mtp_angle_r	hip_flexion_l	hip_adduction_l	hip_rotation_l	knee_angle_l	ankle_angle_l	subtalar_angle_l	mtp_angle_l	lumbar_extension	lumbar_bending	lumbar_rotation
      6.34000000	      5.48481862	     -3.23417543	     -0.07663470	      0.54299960	      0.94213611	     -0.13934426	      0.47993918	      9.31606750	      0.51820363	    -10.99566785	     12.48046576	      0.51722357	      0.00000000	     13.53909272	     -3.22515311	     -3.50171749	    -55.24967278	      4.77087888	    -12.57867298	      0.00000000	    -23.39621579	      3.38812121	     -0.50437168
      6.35000000	      5.30647527	     -3.16502883	     -0.23120814	      0.55080544	      0.94229938	     -0.13907671	     -0.01424962	      9.20424286	      0.41388161	    -10.71180420	     12.91906605	      1.00814534	      0.00000000	     14.33633639	     -3.08560555	     -3.45255041	    -53.44896568	      5.17035959	    -13.01772733	      0.00000000	    -23.36987590	      3.23407719	     -0.23361889
      6.36000000	      5.11825770	     -3.16729151	     -0.36606502	      0.55863942	      0.94229525	     -0.13885440	     -0.52199982	      9.17735110	      0.38704842	    -10.38020891	     13.18511297	      1.23609538	      0.00000000	     15.06658801	     -3.03879466	     -3.42767379	    -51.42786465	      5.67277049	    -13.24571521	      0.00000000	    -23.33446811	      3.17894329	     -0.01005159
      6.37000000	      4.93004588	     -3.18608086	     -0.51719210	      0.56651634	      0.94218110	     -0.13868393	     -1.03788073	      9.16746886	      0.43584287	    -10.04838672	     13.47063093	      1.47810405	      0.00000000	     15.68915692	     -3.00479845	     -3.42306367	    -49.14504114	      6.06814798	    -13.34484814	      0.00000000	    -23.29665682	      3.15527110	      0.25618601
      6.38000000	      4.72399241	     -3.23816283	     -0.65709578	      0.57443828	      0.94191669	     -0.13857054	     -1.52748884	      9.19777002	      0.53550459	     -9.73928220	     13.70553847	      1.65852904	      0.00000000	     16.22509128	     -2.99156877	     -3.39090903	    -46.61262393	      6.44501549	    -13.30407876	      0.00000000	    -23.22261775	      3.17358065	      0.49917884
      6.39000000	      4.58383330	     -3.28867286	     -0.84251235	      0.58246056	      0.94164163	     -0.13846556	     -2.10248128	      9.21844694	      0.64649365	     -9.42026532	     14.06650340	      1.88644770	      0.00000000	     16.56361430	     -3.01113743	     -3.50065023	    -43.82475014	      6.73085607	    -12.99067408	      0.00000000	    -23.22086520	      3.19694029	      0.77790341
      6.40000000	      4.43358694	     -3.37270538	     -1.00821867	      0.59056490	      0.94122643	     -0.13842058	     -2.66154595	      9.27688984	      0.75740809	     -9.12159160	     14.38888540	      2.07307938	      0.00000000	     16.80621030	     -3.04723275	     -3.57354434	    -40.81524359	      7.01997915	    -12.44797034	      0.00000000	    -23.17947293	      3.25710585	      1.02224162
      6.41000000	      4.28892664	     -3.47784808	     -1.17286634	      0.59877064	      0.94069661	     -0.13843286	     -3.23139290	      9.35550930	      0.87551189	     -8.82930120	     14.71721174	      2.22525788	      0.00000000	     16.93482044	     -3.09687339	     -3.65022408	    -37.60351790	      7.25980498	    -11.64357663	      0.00000000	    -23.11996192	      3.35002334	      1.25665764
      6.42000000	      4.18330123	     -3.64541729	     -1.32115124	      0.60705864	      0.94008466	     -0.13851354	     -3.84736220	      9.49787122	      0.99148396	     -8.54576980	     15.02970624	      2.38880386	      0.00000000	     16.93371987	     -3.20040773	     -3.69740955	    -34.24414658	      7.51278101	    -10.46226957	      0.00000000	    -23.09993509	      3.53085636	      1.51061579
      6.43000000	      4.06168009	     -3.81629619	     -1.47542041	      0.61546025	      0.93932711	     -0.13864424	     -4.45276156	      9.63844816	      1.11947455	     -8.26642679	     15.37677071	      2.49215483	      0.00000000	     16.85384000	     -3.29899225	     -3.75963134	    -30.73119189	      7.62230169	     -9.15266240	      0.00000000	    -23.03430922	      3.72106860	      1.75598051
      6.44000000	      3.94832200	     -4.01842095	     -1.62252958	      0.62396430	      0.93845142	     -0.13881318	     -5.07066776	      9.80997158	      1.25704406	     -8.00099585	     15.71095573	      2.56449240	      0.00000000	     16.68928498	     -3.41557991	     -3.77956216	    -27.12114158	      7.63099276	     -7.67660625	      0.00000000	    -22.96018440	      3.94593885	      1.99061205
      6.45000000	      3.84724680	     -4.24503179	     -1.76656028	      0.63258968	      0.93746919	     -0.13901943	     -5.71867572	     10.00203210	      1.42006725	     -7.72463615	     16.05475401	      2.60835772	      0.00000000	     16.44197608	     -3.54560084	     -3.75526513	    -23.44549415	      7.50659119	     -6.17918017	      0.00000000	    -22.87763021	      4.19943605	      2.24246427
      6.46000000	      3.74623499	     -4.49131350	     -1.90818856	      0.64130119	      0.93637541	     -0.13928670	     -6.36328725	     10.20830235	      1.61125450	     -7.47524477	     16.38892781	      2.62510199	      0.00000000	     16.13720155	     -3.68160696	     -3.65533469	    -19.73888035	      7.24041627	     -4.76320503	      0.00000000	    -22.78875730	      4.48512256	      2.49138648
      6.47000000	      3.65660097	     -4.74962227	     -2.04501649	      0.65008564	      0.93519519	     -0.13959110	     -7.01249265	     10.42224770	      1.83397927	     -7.25765928	     16.71888145	      2.61851593	      0.00000000	     15.77615565	     -3.82818031	     -3.50110140	    -16.04708703	      6.84348420	     -3.51079306	      0.00000000	    -22.71365371	      4.78643304	      2.73272551
      6.48000000	      3.57253140	     -5.03160811	     -2.17727367	      0.65895184	      0.93392860	     -0.13992510	     -7.66341737	     10.65629168	      2.07283432	     -7.06610105	     17.04349310	      2.59743715	      0.00000000	     15.37999602	     -4.00883898	     -3.33773903	    -12.42874616	      6.34919794	     -2.47689233	      0.00000000	    -22.64217941	      5.10858339	      2.96514361
      6.49000000	      3.51064409	     -5.32604945	     -2.29833681	      0.66789225	      0.93261184	     -0.14031097	     -8.33328396	     10.89773001	      2.32048321	     -6.89871204	     17.35384122	      2.57288290	      0.00000000	     14.95474535	     -4.21499433	     -3.26151205	     -8.95895940	      5.81136951	     -1.65765224	      0.00000000	    -22.59926483	      5.44940747	      3.19703104
      6.50000000	      3.44636840	     -5.64655555	     -2.38696675	      0.67688013	      0.93122560	     -0.14077892	     -8.98997764	     11.16596359	      2.54006966	     -6.75772757	     17.67120910	      2.55716027	      0.00000000	     14.57682294	     -4.45489410	     -3.39066528	     -5.74609826	      5.24983872	     -1.01049870	      0.00000000	    -22.55908352	      5.84090656	      3.39859487
      6.51000000	      3.46236514	     -5.90786316	     -2.46246199	      0.68595320	      0.92992338	     -0.14131479	     -9.72056744	     11.36273033	      2.75901895	     -6.64764289	     17.91080505	      2.51371085	      0.00000000	     14.15240357	     -4.62256930	     -3.75256222	     -2.83745673	      4.88489961	     -0.41169735	      0.00000000	    -22.61504952	      6.14522708	      3.59047505
      6.52000000	      3.48161571	     -6.17538701	     -2.48813245	      0.69503324	      0.92861612	     -0.14198032	    -10.42887101	     11.57040659	      2.93527597	     -6.58085773	     18.14107970	      2.43451194	      0.00000000	     13.86105008	     -4.77069081	     -4.53313902	     -0.40666283	      4.69993998	      0.37552304	      0.00000000	    -22.69435847	      6.48154309	      3.69717854
